<?xml version="1.0" encoding="UTF-8" standalone="no"?>
<svg width="132px" height="95px" viewBox="0 0 132 95" version="1.1" xmlns="http://www.w3.org/2000/svg" xmlns:xlink="http://www.w3.org/1999/xlink">
    <!-- Generator: Sketch 3.7.2 (28276) - http://www.bohemiancoding.com/sketch -->
    <title>CV</title>
    <desc>Created with Sketch.</desc>
    <defs></defs>
    <g id="Page-1" stroke="none" stroke-width="1" fill="none" fill-rule="evenodd">
        <g id="Desktop-Main" transform="translate(-256.000000, -755.000000)">
            <g id="CV" transform="translate(256.000000, 755.000000)">
                <g id="Blog-Icon">
                    <g id="book" transform="translate(0.000000, 0.742188)" fill="#2C1676">
                        <g id="Capa_1">
                            <g id="Group">
                                <path d="M88.9040261,0.261563845 L122.871328,4.26410408 L122.871328,82.3328884 L89.5144846,78.4024471 C82.3309586,77.5558098 75.1418513,78.5238953 68.4906451,81.1999554 L68.4906451,3.56481452 C74.8641799,0.577609126 81.8879402,-0.565123812 88.9040261,0.261563845 L88.9040261,0.261563845 Z M42.8451121,0.261563845 C49.8608492,-0.565473807 56.8853071,0.577609126 63.2584931,3.56481452 L63.2584931,81.2006553 C58.171107,79.1538859 52.7697708,78.1042516 47.2965749,78.1042516 C45.6141515,78.1042516 43.9240537,78.2033001 42.2346536,78.4020971 L8.87746089,82.3325384 L8.87746089,4.26410408 L42.8451121,0.261563845 L42.8451121,0.261563845 Z M131.749487,93.7735176 L0,93.7735176 L0,13.1235218 L3.64496007,13.1235218 L3.64496007,85.2840444 C3.64496007,86.0337332 3.96414262,86.7473725 4.52262488,87.2454151 C5.0807583,87.7434577 5.82481991,87.9786541 6.5664397,87.8911555 L42.8451121,83.6163193 C50.3827039,82.7276825 57.9314584,84.1105119 64.6705707,87.6146596 C65.4254461,88.0073537 66.3233432,88.0073537 67.0782187,87.6146596 C73.8169821,84.1105119 81.3629459,82.7276825 88.9036773,83.6163193 L125.182001,87.8911555 C125.28386,87.9030553 125.38572,87.9090052 125.48723,87.9090052 C126.124549,87.9090052 126.744426,87.6752087 127.225816,87.2454151 C127.784298,86.7473725 128.10348,86.0337332 128.10348,85.2840444 L128.10348,13.1235218 L131.748789,13.1235218 L131.748789,93.7735176 L131.749487,93.7735176 Z" id="Shape"></path>
                            </g>
                        </g>
                    </g>
                    <path d="M67.1068722,3.71285854 C67.1068722,3.71285854 67.1068722,16.924916 67.1068722,33.2231455 L67.1068722,84.2693283 C67.1068722,84.2693283 74.680386,79.6440765 85.0441417,80.8003894 C95.4078975,81.9567024 122.911711,86.5819543 125.701953,85.0402036 L126.100559,4.4837338 C126.100559,4.4837338 99.3939574,2.17110787 93.0162615,0.629357248 C90.1216195,-0.0703964413 83.1589464,-0.167915908 78.2678399,0.243919593 C72.9394873,0.692571608 67.2644265,3.65385827 67.1068722,3.70425239 C66.949318,3.7546465 68.7652423,2.91199143 68.7026586,2.97341282" id="Path-13" fill="#FFFFFF"></path>
                    <path d="M5.90016831,3.71285854 C5.90016831,3.71285854 5.90016831,16.924916 5.90016831,33.2231455 L5.90016831,84.2693283 C5.90016831,84.2693283 13.4736821,79.6440765 23.8374378,80.8003894 C34.2011936,81.9567024 61.7050068,86.5819543 64.4952488,85.0402036 L64.8938547,4.4837338 C64.8938547,4.4837338 38.1872535,2.17110787 31.8095576,0.629357248 C28.9149156,-0.0703964413 21.9522425,-0.167915908 17.061136,0.243919593 C11.7327834,0.692571608 6.05772258,3.65385827 5.90016831,3.70425239 C5.74261405,3.7546465 7.55853843,2.91199143 7.4959547,2.97341282" id="Path-13-Copy" fill="#FFFFFF" transform="translate(35.392164, 42.675781) scale(-1, 1) translate(-35.392164, -42.675781) "></path>
                </g>
            </g>
        </g>
    </g>
</svg>