<?xml version="1.0" encoding="UTF-8" standalone="no"?>
<svg width="20px" height="20px" viewBox="0 0 20 20" version="1.1" xmlns="http://www.w3.org/2000/svg" xmlns:xlink="http://www.w3.org/1999/xlink">
    <!-- Generator: Sketch 3.7.2 (28276) - http://www.bohemiancoding.com/sketch -->
    <title>Shape</title>
    <desc>Created with Sketch.</desc>
    <defs></defs>
    <g id="Symbols" stroke="none" stroke-width="1" fill="none" fill-rule="evenodd">
        <g id="Navbar" transform="translate(-1110.000000, -5.000000)" fill="#FFFFFF">
            <g transform="translate(0.000000, 3.000000)" id="Github-Icon">
                <g transform="translate(1110.000000, 2.000000)">
                    <g id="Layer_1">
                        <g id="Group">
                            <path d="M10.0180165,0.0712396694 C4.5061157,0.0712396694 0.0365289256,4.53983471 0.0365289256,10.052562 C0.0365289256,14.4628099 2.89652893,18.2039669 6.86247934,19.5241322 C7.36132231,19.6165289 7.54446281,19.307438 7.54446281,19.0438017 C7.54446281,18.8059504 7.53520661,18.0195041 7.53090909,17.1856198 C4.75404959,17.7892562 4.16809917,16.0079339 4.16809917,16.0079339 C3.71404959,14.8542149 3.05983471,14.547438 3.05983471,14.547438 C2.15421488,13.9279339 3.12809917,13.9404959 3.12809917,13.9404959 C4.13024793,14.0109091 4.65818182,14.9694215 4.65818182,14.9694215 C5.54842975,16.4950413 6.99322314,16.0540496 7.56280992,15.7991736 C7.65239669,15.1542149 7.91090909,14.7135537 8.19652893,14.4642975 C5.97950413,14.2122314 3.64876033,13.3560331 3.64876033,9.53157025 C3.64876033,8.44181818 4.03867769,7.55157025 4.67735537,6.85239669 C4.57371901,6.60099174 4.23206612,5.58578512 4.77404959,4.21090909 C4.77404959,4.21090909 5.6122314,3.94280992 7.51950413,5.23404959 C8.31570248,5.01289256 9.16958678,4.90198347 10.0178512,4.89818182 C10.8659504,4.90198347 11.7204959,5.01289256 12.5181818,5.23404959 C14.4234711,3.94280992 15.2603306,4.21090909 15.2603306,4.21090909 C15.8036364,5.58578512 15.4621488,6.60099174 15.3585124,6.85239669 C15.9983471,7.55140496 16.3857851,8.44181818 16.3857851,9.53157025 C16.3857851,13.3654545 14.0507438,14.2092562 11.8280992,14.4565289 C12.1861157,14.7661157 12.505124,15.373719 12.505124,16.3047934 C12.505124,17.6403306 12.4935537,18.7153719 12.4935537,19.0439669 C12.4935537,19.3095868 12.6733884,19.6208264 13.1791736,19.5229752 C17.1428099,18.2016529 19.9993388,14.4613223 19.9993388,10.0527273 C19.9993388,4.53983471 15.5304132,0.0712396694 10.0180165,0.0712396694 L10.0180165,0.0712396694 Z" id="Shape"></path>
                        </g>
                    </g>
                </g>
            </g>
        </g>
    </g>
</svg>