<?xml version="1.0" encoding="UTF-8" standalone="no"?>
<svg width="286px" height="372px" viewBox="0 0 286 372" version="1.1" xmlns="http://www.w3.org/2000/svg" xmlns:xlink="http://www.w3.org/1999/xlink">
    <!-- Generator: Sketch 3.7.2 (28276) - http://www.bohemiancoding.com/sketch -->
    <title>Graphic Design Icon</title>
    <desc>Created with Sketch.</desc>
    <defs>
        <rect id="path-1" x="22.0710336" y="14.1347949" width="94.8316686" height="128.349674"></rect>
        <filter x="-50%" y="-50%" width="200%" height="200%" filterUnits="objectBoundingBox" id="filter-2">
            <feOffset dx="7" dy="7" in="SourceAlpha" result="shadowOffsetOuter1"></feOffset>
            <feColorMatrix values="0 0 0 0 0.223529412   0 0 0 0 0.341176471   0 0 0 0 0.760784314  0 0 0 1 0" type="matrix" in="shadowOffsetOuter1"></feColorMatrix>
        </filter>
        <rect id="path-3" x="22.0710336" y="14.1347949" width="94.8316686" height="128.349674"></rect>
        <filter x="-50%" y="-50%" width="200%" height="200%" filterUnits="objectBoundingBox" id="filter-4">
            <feOffset dx="7" dy="7" in="SourceAlpha" result="shadowOffsetOuter1"></feOffset>
            <feColorMatrix values="0 0 0 0 0.0539282172   0 0 0 0 0.0973211345   0 0 0 0 0.496731505  0 0 0 1 0" type="matrix" in="shadowOffsetOuter1"></feColorMatrix>
        </filter>
    </defs>
    <g id="Page-1" stroke="none" stroke-width="1" fill="none" fill-rule="evenodd">
        <g id="Desktop-Main" transform="translate(-759.000000, -338.000000)">
            <g id="Graphic-Design-Icon" transform="translate(892.717647, 512.228899) rotate(14.000000) translate(-892.717647, -512.228899) translate(724.217647, 292.228899)">
                <path d="M262.317433,372.178782 C258.87125,395.312286 237.111525,414.088208 213.735737,414.115954 L152.529113,414.188605 C140.502452,414.20288 124.424333,406.808489 117.336848,397.086825 C117.336848,397.086825 87.6583689,370.785565 75.377462,282.170248 C63.0965551,193.554931 46.4943135,189.296062 46.4943135,171.290911 C46.4943135,153.28576 82.5668966,167.401178 90.7768579,189.078436 C98.9868193,210.755693 101.67672,232.33102 107.812718,232.331019 C113.948717,232.331018 112.291462,60.9239607 112.291462,60.9239607 C112.291462,60.9239607 124.599392,29.9780077 139.743513,53.7599036 L152.4758,167.296517 C152.9972,171.945953 154.424947,172.057729 155.479992,167.497006 C155.479992,167.497006 159.059888,157.94958 159.059888,132.713166 C159.059888,107.476752 160.973036,41.6054635 160.973036,41.6054635 C161.030184,39.5998638 162.039027,36.658873 163.306953,35.1166067 C163.306953,35.1166067 177.92911,12.5161818 193.594927,37.7591323 L202.834564,179.480831 L202.834564,179.480831 C205.168683,178.230227 208.988363,159.986896 211.365916,138.734483 C211.365916,138.734483 219.935764,62.1305503 219.935764,62.1305483 C219.935764,62.1305463 233.581461,37.7591324 248.619924,63.1415474 L246.508261,202.75585 L251.197875,200.237994 L267.304586,127.87202 C267.594662,126.568732 268.572168,124.718797 269.524396,123.79029 C269.524396,123.79029 283.559598,107.329906 290.505687,128.823436 L288.290074,167.401181 L280.92747,237.413562 L270.398857,317.929867 L262.317433,372.178782 Z" id="Path-18" fill="#FF3800" transform="translate(168.500000, 220.000000) rotate(-345.000000) translate(-168.500000, -220.000000) "></path>
                <g id="poster" transform="translate(74.007194, 167.648352)">
                    <g id="Rectangle-4" transform="translate(69.486868, 78.309632) rotate(-23.000000) translate(-69.486868, -78.309632) ">
                        <use fill="black" fill-opacity="1" filter="url(#filter-2)" xlink:href="#path-1"></use>
                        <use fill="#FFFFFF" fill-rule="evenodd" xlink:href="#path-1"></use>
                    </g>
                    <g id="Rectangle-4-Copy" transform="translate(69.486868, 78.309632) rotate(-23.000000) translate(-69.486868, -78.309632) ">
                        <use fill="black" fill-opacity="1" filter="url(#filter-4)" xlink:href="#path-3"></use>
                        <use fill="#FFFFFF" fill-rule="evenodd" xlink:href="#path-3"></use>
                    </g>
                    <rect id="Rectangle-1" fill="#FF3800" x="70.0900289" y="93.0187157" width="21.5348694" height="21.4658654"></rect>
                    <polyline id="Polygon-1" fill="#E4B849" points="97.7777182 60.8199176 79.3192587 71.5528503 79.3192587 50.0869849 97.7777182 60.8199176"></polyline>
                    <ellipse id="Oval-3" fill="#0F0E0F" cx="53.1697744" cy="73.0861264" rx="12.3056397" ry="12.2662088"></ellipse>
                </g>
            </g>
        </g>
    </g>
</svg>