<?xml version="1.0" encoding="UTF-8" standalone="no"?>
<svg width="20px" height="20px" viewBox="0 0 20 20" version="1.1" xmlns="http://www.w3.org/2000/svg" xmlns:xlink="http://www.w3.org/1999/xlink">
    <!-- Generator: Sketch 3.7.2 (28276) - http://www.bohemiancoding.com/sketch -->
    <title>linkedin</title>
    <desc>Created with Sketch.</desc>
    <defs></defs>
    <g id="Symbols" stroke="none" stroke-width="1" fill="none" fill-rule="evenodd">
        <g id="Navbar" transform="translate(-1189.000000, -5.000000)" fill="#FFFFFF">
            <g transform="translate(0.000000, 3.000000)" id="linkedin">
                <g transform="translate(1189.000000, 2.000000)">
                    <g id="Capa_1">
                        <path d="M0,0 L0,19.9882018 L19.9882018,19.9882018 L19.9882018,0 L0,0 L0,0 Z M6.1377193,16.4896053 C6.1377193,16.7441667 5.93135965,16.9505263 5.67679825,16.9505263 L3.71535088,16.9505263 C3.46078947,16.9505263 3.25442982,16.7441667 3.25442982,16.4896053 L3.25442982,8.12192982 C3.25442982,7.86736842 3.46078947,7.66100877 3.71535088,7.66100877 L5.67679825,7.66100877 C5.93135965,7.66100877 6.1377193,7.86736842 6.1377193,8.12192982 L6.1377193,16.4896053 L6.1377193,16.4896053 Z M4.69289474,6.38118421 C3.80219298,6.39921053 3.01942982,5.65526316 3.01960526,4.70627193 C3.01960526,3.78587719 3.77758772,3.035 4.70416667,3.03574561 C5.61964912,3.03649123 6.37469298,3.79263158 6.3727193,4.71267544 C6.37052632,5.67600877 5.57105263,6.40214912 4.69289474,6.38118421 L4.69289474,6.38118421 Z M16.9685965,16.7610965 C16.9685965,16.8667982 16.8828947,16.9524561 16.777193,16.9524123 L14.2705263,16.9517982 C14.1648684,16.9517544 14.0792105,16.8660965 14.0792105,16.7604386 L14.0792105,11.5934649 C14.0792105,11.1468421 13.8982456,10.7422807 13.6054386,10.4496491 C13.3087719,10.152807 12.8971491,9.97087719 12.443114,9.97600877 C11.5536842,9.98605263 10.8442544,10.7246053 10.8442544,11.6140789 L10.8442544,16.7598246 C10.8442544,16.8655263 10.7585526,16.9511842 10.6528509,16.9511404 L8.15236842,16.9505263 C8.04671053,16.9504825 7.96109649,16.8648246 7.96109649,16.7592105 L7.96109649,7.85236842 C7.96109649,7.74671053 8.04675439,7.66100877 8.15245614,7.66100877 L10.5996053,7.66100877 C10.7052632,7.66100877 10.7909649,7.74666667 10.7909649,7.85236842 L10.7909649,8.87947368 C10.7911842,8.87903509 10.8008333,8.88026316 10.8172368,8.88276316 C10.8645175,8.79723684 10.9160088,8.71438596 10.9716228,8.63460526 C11.4816228,7.90267544 12.3295175,7.42381579 13.2892544,7.42381579 L13.7923246,7.42381579 C15.5465351,7.42381579 16.9686404,8.84587719 16.9686404,10.6001316 L16.9686404,16.7610965 L16.9685965,16.7610965 Z" id="Shape"></path>
                    </g>
                </g>
            </g>
        </g>
    </g>
</svg>